<mxfile host="app.diagrams.net" modified="2023-05-22T10:30:19.011Z" agent="Mozilla/5.0 (Windows NT 10.0; Win64; x64) AppleWebKit/537.36 (KHTML, like Gecko) Chrome/113.0.0.0 Safari/537.36 Edg/113.0.1774.50" etag="ah866FsQzGnYiGpkacsq" version="21.3.2" type="device">
  <diagram name="Page-1" id="CaN2TIFZS95RjNvJMq2R">
    <mxGraphModel dx="1119" dy="914" grid="1" gridSize="10" guides="1" tooltips="1" connect="1" arrows="1" fold="1" page="1" pageScale="1" pageWidth="850" pageHeight="1100" math="0" shadow="0">
      <root>
        <mxCell id="0" />
        <mxCell id="1" parent="0" />
        <mxCell id="9Jd0rOTbVGKq8dBKAiqy-2" value="ACME WEBSITE" style="swimlane;html=1;startSize=20;fontStyle=0;collapsible=0;horizontal=0;swimlaneLine=1;swimlaneFillColor=#ffffff;strokeWidth=2;whiteSpace=wrap;" vertex="1" parent="1">
          <mxGeometry x="80" y="40" width="1240" height="240" as="geometry" />
        </mxCell>
        <mxCell id="9Jd0rOTbVGKq8dBKAiqy-10" style="edgeStyle=orthogonalEdgeStyle;rounded=0;orthogonalLoop=1;jettySize=auto;html=1;" edge="1" parent="9Jd0rOTbVGKq8dBKAiqy-2" source="9Jd0rOTbVGKq8dBKAiqy-6" target="9Jd0rOTbVGKq8dBKAiqy-9">
          <mxGeometry relative="1" as="geometry" />
        </mxCell>
        <mxCell id="9Jd0rOTbVGKq8dBKAiqy-6" value="Đăng nhập" style="rounded=0;whiteSpace=wrap;html=1;" vertex="1" parent="9Jd0rOTbVGKq8dBKAiqy-2">
          <mxGeometry x="230" y="95" width="160" height="80" as="geometry" />
        </mxCell>
        <mxCell id="9Jd0rOTbVGKq8dBKAiqy-8" style="edgeStyle=orthogonalEdgeStyle;rounded=0;orthogonalLoop=1;jettySize=auto;html=1;entryX=0;entryY=0.5;entryDx=0;entryDy=0;" edge="1" parent="9Jd0rOTbVGKq8dBKAiqy-2" source="9Jd0rOTbVGKq8dBKAiqy-7" target="9Jd0rOTbVGKq8dBKAiqy-6">
          <mxGeometry relative="1" as="geometry" />
        </mxCell>
        <mxCell id="9Jd0rOTbVGKq8dBKAiqy-7" value="Start" style="points=[[0.145,0.145,0],[0.5,0,0],[0.855,0.145,0],[1,0.5,0],[0.855,0.855,0],[0.5,1,0],[0.145,0.855,0],[0,0.5,0]];shape=mxgraph.bpmn.event;html=1;verticalLabelPosition=bottom;labelBackgroundColor=#ffffff;verticalAlign=top;align=center;perimeter=ellipsePerimeter;outlineConnect=0;aspect=fixed;outline=standard;symbol=general;" vertex="1" parent="9Jd0rOTbVGKq8dBKAiqy-2">
          <mxGeometry x="100" y="110" width="50" height="50" as="geometry" />
        </mxCell>
        <mxCell id="9Jd0rOTbVGKq8dBKAiqy-9" value="Lấy thông tin hóa đơn" style="rounded=0;whiteSpace=wrap;html=1;" vertex="1" parent="9Jd0rOTbVGKq8dBKAiqy-2">
          <mxGeometry x="430" y="95" width="160" height="80" as="geometry" />
        </mxCell>
        <mxCell id="9Jd0rOTbVGKq8dBKAiqy-3" value="EXCEL" style="swimlane;html=1;startSize=20;fontStyle=0;collapsible=0;horizontal=0;swimlaneLine=1;swimlaneFillColor=#ffffff;strokeWidth=2;whiteSpace=wrap;" vertex="1" parent="1">
          <mxGeometry x="80" y="280" width="1240" height="240" as="geometry" />
        </mxCell>
        <mxCell id="9Jd0rOTbVGKq8dBKAiqy-11" value="Tổng hợp" style="rounded=0;whiteSpace=wrap;html=1;" vertex="1" parent="9Jd0rOTbVGKq8dBKAiqy-3">
          <mxGeometry x="770" y="80" width="160" height="80" as="geometry" />
        </mxCell>
        <mxCell id="9Jd0rOTbVGKq8dBKAiqy-15" style="edgeStyle=orthogonalEdgeStyle;rounded=0;orthogonalLoop=1;jettySize=auto;html=1;" edge="1" parent="9Jd0rOTbVGKq8dBKAiqy-3" source="9Jd0rOTbVGKq8dBKAiqy-13" target="9Jd0rOTbVGKq8dBKAiqy-11">
          <mxGeometry relative="1" as="geometry" />
        </mxCell>
        <mxCell id="9Jd0rOTbVGKq8dBKAiqy-13" value="Phân loại theo tiêu chí" style="rhombus;whiteSpace=wrap;html=1;" vertex="1" parent="9Jd0rOTbVGKq8dBKAiqy-3">
          <mxGeometry x="420" y="60" width="180" height="120" as="geometry" />
        </mxCell>
        <mxCell id="9Jd0rOTbVGKq8dBKAiqy-17" value="File excel so sánh" style="shape=image;html=1;verticalAlign=top;verticalLabelPosition=bottom;labelBackgroundColor=#ffffff;imageAspect=0;aspect=fixed;image=https://cdn3.iconfinder.com/data/icons/document-icons-2/30/647702-excel-128.png" vertex="1" parent="9Jd0rOTbVGKq8dBKAiqy-3">
          <mxGeometry x="620" y="90" width="60" height="60" as="geometry" />
        </mxCell>
        <mxCell id="9Jd0rOTbVGKq8dBKAiqy-4" value="EMAIL" style="swimlane;html=1;startSize=20;fontStyle=0;collapsible=0;horizontal=0;swimlaneLine=1;swimlaneFillColor=#ffffff;strokeWidth=2;whiteSpace=wrap;" vertex="1" parent="1">
          <mxGeometry x="80" y="760" width="1240" height="240" as="geometry" />
        </mxCell>
        <mxCell id="9Jd0rOTbVGKq8dBKAiqy-21" value="Gửi kết quả về mail" style="rounded=0;whiteSpace=wrap;html=1;" vertex="1" parent="9Jd0rOTbVGKq8dBKAiqy-4">
          <mxGeometry x="770" y="90" width="160" height="80" as="geometry" />
        </mxCell>
        <mxCell id="9Jd0rOTbVGKq8dBKAiqy-14" style="edgeStyle=orthogonalEdgeStyle;rounded=0;orthogonalLoop=1;jettySize=auto;html=1;entryX=0.5;entryY=0;entryDx=0;entryDy=0;" edge="1" parent="1" source="9Jd0rOTbVGKq8dBKAiqy-9" target="9Jd0rOTbVGKq8dBKAiqy-13">
          <mxGeometry relative="1" as="geometry" />
        </mxCell>
        <mxCell id="9Jd0rOTbVGKq8dBKAiqy-18" value="DoubleUI" style="swimlane;html=1;startSize=20;fontStyle=0;collapsible=0;horizontal=0;swimlaneLine=1;swimlaneFillColor=#ffffff;strokeWidth=2;whiteSpace=wrap;" vertex="1" parent="1">
          <mxGeometry x="80" y="520" width="1240" height="240" as="geometry" />
        </mxCell>
        <mxCell id="9Jd0rOTbVGKq8dBKAiqy-19" value="Fill data" style="rounded=0;whiteSpace=wrap;html=1;" vertex="1" parent="9Jd0rOTbVGKq8dBKAiqy-18">
          <mxGeometry x="770" y="80" width="160" height="80" as="geometry" />
        </mxCell>
        <mxCell id="9Jd0rOTbVGKq8dBKAiqy-20" style="edgeStyle=orthogonalEdgeStyle;rounded=0;orthogonalLoop=1;jettySize=auto;html=1;entryX=0.5;entryY=0;entryDx=0;entryDy=0;" edge="1" parent="1" source="9Jd0rOTbVGKq8dBKAiqy-11" target="9Jd0rOTbVGKq8dBKAiqy-19">
          <mxGeometry relative="1" as="geometry" />
        </mxCell>
        <mxCell id="9Jd0rOTbVGKq8dBKAiqy-22" style="edgeStyle=orthogonalEdgeStyle;rounded=0;orthogonalLoop=1;jettySize=auto;html=1;" edge="1" parent="1" source="9Jd0rOTbVGKq8dBKAiqy-19" target="9Jd0rOTbVGKq8dBKAiqy-21">
          <mxGeometry relative="1" as="geometry" />
        </mxCell>
      </root>
    </mxGraphModel>
  </diagram>
</mxfile>
